<?xml version="1.0" encoding="UTF-8" standalone="no"?><!DOCTYPE svg PUBLIC "-//W3C//DTD SVG 1.1//EN" "http://www.w3.org/Graphics/SVG/1.1/DTD/svg11.dtd"><svg width="100%" height="100%" viewBox="0 0 116 26" version="1.1" xmlns="http://www.w3.org/2000/svg" xmlns:xlink="http://www.w3.org/1999/xlink" xml:space="preserve" style="fill-rule:evenodd;clip-rule:evenodd;stroke-linejoin:round;stroke-miterlimit:1.41421;"><path d="M41.04,9.768c0,-0.755 -0.613,-1.368 -1.368,-1.368l-19.584,0c-0.755,0 -1.368,0.613 -1.368,1.368l0,6.384c0,0.755 0.613,1.368 1.368,1.368l19.584,0c0.755,0 1.368,-0.613 1.368,-1.368l0,-6.384Z" style="fill:#75df6b;"/><g transform="matrix(0.24,0,0,0.24,0,-0.24)"><path d="M94,62.523c-1.042,0 -2.038,-0.156 -2.99,-0.469c-0.951,-0.312 -1.711,-0.732 -2.281,-1.26c-0.208,-0.195 -0.312,-0.438 -0.312,-0.729c0,-0.195 0.055,-0.365 0.166,-0.511c0.111,-0.146 0.243,-0.218 0.396,-0.218c0.181,0 0.375,0.076 0.583,0.229c1.292,1 2.764,1.5 4.417,1.5c1.195,0 2.111,-0.229 2.75,-0.688c0.639,-0.458 0.958,-1.111 0.958,-1.958c0,-0.486 -0.152,-0.879 -0.458,-1.177c-0.305,-0.299 -0.708,-0.538 -1.208,-0.719c-0.5,-0.18 -1.174,-0.368 -2.021,-0.562c-1.139,-0.264 -2.073,-0.542 -2.802,-0.834c-0.729,-0.291 -1.32,-0.708 -1.771,-1.25c-0.451,-0.541 -0.677,-1.25 -0.677,-2.125c0,-0.833 0.226,-1.573 0.677,-2.219c0.451,-0.645 1.083,-1.145 1.896,-1.5c0.812,-0.354 1.739,-0.531 2.781,-0.531c0.972,0 1.879,0.15 2.719,0.448c0.84,0.299 1.545,0.726 2.114,1.281c0.223,0.223 0.334,0.466 0.334,0.73c0,0.194 -0.056,0.364 -0.167,0.51c-0.111,0.146 -0.243,0.219 -0.396,0.219c-0.152,0 -0.354,-0.077 -0.604,-0.229c-0.68,-0.556 -1.312,-0.945 -1.896,-1.167c-0.583,-0.222 -1.284,-0.333 -2.104,-0.333c-1.153,0 -2.048,0.239 -2.687,0.718c-0.639,0.479 -0.959,1.15 -0.959,2.011c0,0.736 0.282,1.288 0.844,1.656c0.563,0.368 1.427,0.691 2.594,0.969c1.264,0.305 2.257,0.587 2.979,0.843c0.722,0.257 1.323,0.643 1.802,1.157c0.479,0.514 0.719,1.201 0.719,2.062c0,0.82 -0.226,1.542 -0.677,2.167c-0.452,0.625 -1.087,1.111 -1.907,1.458c-0.819,0.347 -1.756,0.521 -2.812,0.521Z" style="fill:#f8f7f6;fill-rule:nonzero;"/><path d="M109.771,60.002c0.153,0 0.285,0.063 0.396,0.188c0.111,0.125 0.166,0.284 0.166,0.479c0,0.347 -0.243,0.667 -0.729,0.958c-0.5,0.292 -1.028,0.511 -1.583,0.656c-0.556,0.146 -1.097,0.219 -1.625,0.219c-1.57,0 -2.809,-0.465 -3.719,-1.396c-0.91,-0.93 -1.365,-2.215 -1.365,-3.854c0,-1.041 0.202,-1.962 0.605,-2.76c0.402,-0.799 0.968,-1.42 1.698,-1.865c0.729,-0.444 1.559,-0.666 2.489,-0.666c1.32,0 2.368,0.43 3.146,1.291c0.778,0.861 1.167,2.028 1.167,3.5c0,0.278 -0.056,0.479 -0.167,0.604c-0.111,0.125 -0.292,0.188 -0.542,0.188l-6.708,0c0.125,2.389 1.257,3.583 3.396,3.583c0.541,0 1.007,-0.073 1.396,-0.219c0.389,-0.145 0.805,-0.343 1.25,-0.593c0.361,-0.209 0.604,-0.313 0.729,-0.313Zm-3.646,-6.729c-0.889,0 -1.601,0.278 -2.135,0.833c-0.535,0.556 -0.851,1.341 -0.948,2.355l5.895,0c-0.027,-1.028 -0.284,-1.816 -0.77,-2.365c-0.486,-0.549 -1.167,-0.823 -2.042,-0.823Z" style="fill:#f8f7f6;fill-rule:nonzero;"/><path d="M118,51.961c2.431,0 3.646,1.34 3.646,4.02l0,5.646c0,0.264 -0.073,0.469 -0.219,0.615c-0.146,0.146 -0.351,0.219 -0.615,0.219c-0.263,0 -0.472,-0.073 -0.625,-0.219c-0.152,-0.146 -0.229,-0.351 -0.229,-0.615l0,-5.541c0,-0.945 -0.184,-1.632 -0.552,-2.063c-0.368,-0.43 -0.955,-0.646 -1.76,-0.646c-0.931,0 -1.674,0.285 -2.229,0.854c-0.556,0.57 -0.834,1.341 -0.834,2.313l0,5.083c0,0.264 -0.073,0.469 -0.218,0.615c-0.146,0.146 -0.351,0.219 -0.615,0.219c-0.264,0 -0.472,-0.073 -0.625,-0.219c-0.153,-0.146 -0.229,-0.351 -0.229,-0.615l0,-8.791c0,-0.25 0.076,-0.452 0.229,-0.605c0.153,-0.152 0.361,-0.229 0.625,-0.229c0.25,0 0.448,0.077 0.594,0.229c0.146,0.153 0.218,0.348 0.218,0.584l0,1.062c0.334,-0.625 0.799,-1.1 1.396,-1.427c0.598,-0.326 1.278,-0.489 2.042,-0.489Z" style="fill:#f8f7f6;fill-rule:nonzero;"/><path d="M132.875,47.565c0.264,0 0.472,0.076 0.625,0.229c0.153,0.153 0.229,0.347 0.229,0.583l0,13.25c0,0.25 -0.076,0.452 -0.229,0.604c-0.153,0.153 -0.361,0.23 -0.625,0.23c-0.264,0 -0.469,-0.077 -0.615,-0.23c-0.145,-0.152 -0.218,-0.354 -0.218,-0.604l0,-1.125c-0.306,0.639 -0.754,1.132 -1.344,1.479c-0.59,0.348 -1.281,0.521 -2.073,0.521c-0.889,0 -1.674,-0.222 -2.354,-0.666c-0.681,-0.445 -1.209,-1.066 -1.584,-1.865c-0.375,-0.799 -0.562,-1.726 -0.562,-2.781c0,-1.042 0.187,-1.959 0.562,-2.75c0.375,-0.792 0.903,-1.403 1.584,-1.834c0.68,-0.43 1.465,-0.645 2.354,-0.645c0.792,0 1.483,0.173 2.073,0.52c0.59,0.348 1.038,0.841 1.344,1.48l0,-5.584c0,-0.25 0.073,-0.448 0.218,-0.594c0.146,-0.145 0.351,-0.218 0.615,-0.218Zm-3.917,13.541c0.986,0 1.747,-0.336 2.282,-1.01c0.534,-0.674 0.802,-1.628 0.802,-2.865c0,-1.236 -0.268,-2.187 -0.802,-2.854c-0.535,-0.666 -1.296,-1 -2.282,-1c-0.986,0 -1.753,0.334 -2.302,1c-0.548,0.667 -0.823,1.604 -0.823,2.813c0,1.236 0.275,2.198 0.823,2.885c0.549,0.688 1.316,1.031 2.302,1.031Z" style="fill:#f8f7f6;fill-rule:nonzero;"/><path d="M160.093,51.08c0,-0.291 -0.117,-0.581 -0.326,-0.791l-1.581,-1.58c-0.209,-0.21 -0.5,-0.326 -0.79,-0.326c-0.291,0 -0.582,0.116 -0.791,0.326l-7.626,7.637l-3.417,-3.429c-0.21,-0.21 -0.5,-0.326 -0.791,-0.326c-0.291,0 -0.581,0.116 -0.79,0.326l-1.581,1.581c-0.21,0.209 -0.326,0.499 -0.326,0.79c0,0.291 0.116,0.581 0.326,0.79l5.789,5.789c0.209,0.21 0.5,0.326 0.79,0.326c0.291,0 0.582,-0.116 0.791,-0.326l1.581,-1.58l8.416,-8.417c0.209,-0.209 0.326,-0.499 0.326,-0.79Z" style="fill:#f8f7f6;fill-rule:nonzero;"/></g></svg>