<?xml version="1.0" encoding="UTF-8" standalone="no"?>
<!DOCTYPE svg PUBLIC "-//W3C//DTD SVG 1.1//EN" "http://www.w3.org/Graphics/SVG/1.1/DTD/svg11.dtd">
<svg width="100%" height="100%" viewBox="0 0 93 38" version="1.1" xmlns="http://www.w3.org/2000/svg" xmlns:xlink="http://www.w3.org/1999/xlink" xml:space="preserve" style="fill-rule:evenodd;clip-rule:evenodd;stroke-linejoin:round;stroke-miterlimit:1.41421;">
    <g transform="matrix(1,0,0,1,-78,-35)">
        <g transform="matrix(6.64286,0,0,7.6,-440.143,-231)">
            <path d="M92,35.75C92,35.336 91.616,35 91.142,35L78.858,35C78.384,35 78,35.336 78,35.75L78,39.25C78,39.664 78.384,40 78.858,40L91.142,40C91.616,40 92,39.664 92,39.25L92,35.75Z" style="fill:rgb(117,223,107);"/>
        </g>
        <g transform="matrix(1,0,0,1,-0.8,-1)">
            <g>
                <path d="M94.167,62.544C93.097,62.544 92.087,62.402 91.135,62.117C90.184,61.832 89.41,61.447 88.812,60.961C88.493,60.724 88.333,60.391 88.333,59.961C88.333,59.669 88.42,59.415 88.594,59.2C88.767,58.985 88.972,58.877 89.208,58.877C89.458,58.877 89.743,58.974 90.062,59.169C90.66,59.599 91.285,59.912 91.937,60.106C92.59,60.301 93.312,60.398 94.104,60.398C95.118,60.398 95.896,60.221 96.437,59.867C96.979,59.513 97.25,58.995 97.25,58.315C97.25,57.787 96.997,57.381 96.49,57.096C95.983,56.811 95.139,56.537 93.958,56.273C92.736,56.009 91.743,55.704 90.979,55.356C90.215,55.009 89.639,54.565 89.25,54.023C88.861,53.481 88.667,52.794 88.667,51.961C88.667,51.099 88.91,50.329 89.396,49.648C89.882,48.968 90.559,48.436 91.427,48.054C92.295,47.672 93.271,47.481 94.354,47.481C96.34,47.481 97.958,48.009 99.208,49.065C99.389,49.218 99.517,49.367 99.594,49.513C99.67,49.658 99.708,49.843 99.708,50.065C99.708,50.356 99.622,50.61 99.448,50.825C99.274,51.04 99.069,51.148 98.833,51.148C98.694,51.148 98.566,51.127 98.448,51.086C98.33,51.044 98.174,50.968 97.979,50.856C97.41,50.44 96.858,50.131 96.323,49.929C95.788,49.728 95.132,49.627 94.354,49.627C93.41,49.627 92.663,49.818 92.115,50.2C91.566,50.582 91.292,51.113 91.292,51.794C91.292,52.363 91.535,52.801 92.021,53.106C92.507,53.412 93.333,53.697 94.5,53.961C95.736,54.238 96.74,54.547 97.51,54.888C98.281,55.228 98.872,55.662 99.281,56.19C99.691,56.718 99.896,57.377 99.896,58.169C99.896,59.03 99.656,59.79 99.177,60.45C98.698,61.11 98.024,61.624 97.156,61.992C96.288,62.36 95.292,62.544 94.167,62.544Z" style="fill:rgb(248,247,246);fill-rule:nonzero;"/>
                <path d="M110.208,59.565C110.444,59.565 110.635,59.655 110.781,59.836C110.927,60.016 111,60.259 111,60.565C111,60.995 110.743,61.356 110.229,61.648C109.757,61.912 109.222,62.124 108.625,62.283C108.028,62.443 107.458,62.523 106.917,62.523C105.278,62.523 103.979,62.051 103.021,61.106C102.062,60.162 101.583,58.87 101.583,57.231C101.583,56.19 101.792,55.266 102.208,54.461C102.625,53.655 103.212,53.03 103.969,52.586C104.726,52.141 105.583,51.919 106.542,51.919C107.458,51.919 108.257,52.12 108.937,52.523C109.618,52.926 110.146,53.495 110.521,54.231C110.896,54.968 111.083,55.836 111.083,56.836C111.083,57.433 110.819,57.731 110.292,57.731L104.146,57.731C104.229,58.69 104.5,59.395 104.958,59.846C105.417,60.297 106.083,60.523 106.958,60.523C107.403,60.523 107.795,60.468 108.135,60.356C108.476,60.245 108.861,60.093 109.292,59.898C109.708,59.676 110.014,59.565 110.208,59.565ZM106.604,53.752C105.896,53.752 105.33,53.974 104.906,54.419C104.483,54.863 104.229,55.502 104.146,56.336L108.854,56.336C108.826,55.488 108.618,54.846 108.229,54.408C107.84,53.971 107.299,53.752 106.604,53.752Z" style="fill:rgb(248,247,246);fill-rule:nonzero;"/>
                <path d="M119.125,51.919C120.347,51.919 121.257,52.266 121.854,52.961C122.451,53.655 122.75,54.704 122.75,56.106L122.75,61.231C122.75,61.62 122.635,61.926 122.406,62.148C122.177,62.37 121.861,62.481 121.458,62.481C121.056,62.481 120.736,62.37 120.5,62.148C120.264,61.926 120.146,61.62 120.146,61.231L120.146,56.252C120.146,55.461 119.997,54.884 119.698,54.523C119.399,54.162 118.931,53.981 118.292,53.981C117.542,53.981 116.941,54.218 116.49,54.69C116.038,55.162 115.812,55.794 115.812,56.586L115.812,61.231C115.812,61.62 115.694,61.926 115.458,62.148C115.222,62.37 114.903,62.481 114.5,62.481C114.097,62.481 113.781,62.37 113.552,62.148C113.323,61.926 113.208,61.62 113.208,61.231L113.208,53.169C113.208,52.808 113.326,52.516 113.562,52.294C113.799,52.072 114.118,51.961 114.521,51.961C114.882,51.961 115.177,52.068 115.406,52.283C115.635,52.499 115.75,52.78 115.75,53.127L115.75,53.69C116.097,53.12 116.562,52.683 117.146,52.377C117.729,52.072 118.389,51.919 119.125,51.919Z" style="fill:rgb(248,247,246);fill-rule:nonzero;"/>
                <path d="M133.896,47.565C134.285,47.565 134.604,47.676 134.854,47.898C135.104,48.12 135.229,48.412 135.229,48.773L135.229,61.231C135.229,61.606 135.111,61.905 134.875,62.127C134.639,62.349 134.326,62.461 133.937,62.461C133.549,62.461 133.236,62.349 133,62.127C132.764,61.905 132.646,61.606 132.646,61.231L132.646,60.711C132.34,61.28 131.899,61.724 131.323,62.044C130.747,62.363 130.09,62.523 129.354,62.523C128.479,62.523 127.698,62.301 127.01,61.856C126.323,61.412 125.788,60.783 125.406,59.971C125.024,59.158 124.833,58.224 124.833,57.169C124.833,56.113 125.024,55.19 125.406,54.398C125.788,53.606 126.319,52.995 127,52.565C127.681,52.134 128.465,51.919 129.354,51.919C130.09,51.919 130.743,52.072 131.312,52.377C131.882,52.683 132.319,53.113 132.625,53.669L132.625,48.731C132.625,48.384 132.74,48.103 132.969,47.888C133.198,47.672 133.507,47.565 133.896,47.565ZM130.042,60.502C130.875,60.502 131.517,60.218 131.969,59.648C132.42,59.079 132.646,58.266 132.646,57.211C132.646,56.155 132.42,55.346 131.969,54.783C131.517,54.221 130.882,53.94 130.062,53.94C129.229,53.94 128.583,54.218 128.125,54.773C127.667,55.329 127.437,56.127 127.437,57.169C127.437,58.224 127.667,59.044 128.125,59.627C128.583,60.211 129.222,60.502 130.042,60.502Z" style="fill:rgb(248,247,246);fill-rule:nonzero;"/>
                <path d="M161.363,51.08C161.363,50.789 161.247,50.499 161.038,50.289L159.457,48.709C159.248,48.499 158.957,48.383 158.667,48.383C158.376,48.383 158.085,48.499 157.876,48.709L150.25,56.346L146.832,52.917C146.623,52.707 146.333,52.591 146.042,52.591C145.751,52.591 145.461,52.707 145.251,52.917L143.67,54.498C143.461,54.707 143.345,54.997 143.345,55.288C143.345,55.579 143.461,55.869 143.67,56.078L149.46,61.867C149.669,62.077 149.959,62.193 150.25,62.193C150.541,62.193 150.831,62.077 151.041,61.867L152.622,60.287L161.038,51.87C161.247,51.661 161.363,51.371 161.363,51.08Z" style="fill:rgb(248,247,246);fill-rule:nonzero;"/>
            </g>
        </g>
    </g>
</svg>
